<?xml version="1.0" encoding="UTF-8" standalone="no"?>
<!-- Created with Inkscape (http://www.inkscape.org/) -->

<svg
   xmlns:dc="http://purl.org/dc/elements/1.1/"
   xmlns:cc="http://creativecommons.org/ns#"
   xmlns:rdf="http://www.w3.org/1999/02/22-rdf-syntax-ns#"
   xmlns:svg="http://www.w3.org/2000/svg"
   xmlns="http://www.w3.org/2000/svg"
   xmlns:sodipodi="http://sodipodi.sourceforge.net/DTD/sodipodi-0.dtd"
   xmlns:inkscape="http://www.inkscape.org/namespaces/inkscape"
   width="210mm"
   height="297mm"
   viewBox="0 0 210 297"
   version="1.1"
   id="svg8"
   inkscape:export-filename="C:\edu\AndroidProjects\NumbersGame\Graphics\18\icon2.png"
   inkscape:export-xdpi="46.958576"
   inkscape:export-ydpi="46.958576"
   inkscape:version="0.92.4 (5da689c313, 2019-01-14)"
   sodipodi:docname="logo.svg">
  <defs
     id="defs2">
    <marker
       inkscape:stockid="Arrow1Lstart"
       orient="auto"
       refY="0.0"
       refX="0.0"
       id="Arrow1Lstart"
       style="overflow:visible"
       inkscape:isstock="true">
      <path
         id="path4524"
         d="M 0.0,0.0 L 5.0,-5.0 L -12.5,0.0 L 5.0,5.0 L 0.0,0.0 z "
         style="fill-rule:evenodd;stroke:#000000;stroke-width:1.0pt"
         transform="scale(0.8) translate(12.5,0)" />
    </marker>
    <clipPath
       clipPathUnits="userSpaceOnUse"
       id="clipPath22">
      <path
         d="m 418.594,1697.71 c 0,0 -244.617,-128.61 -184.617,-478.61 60,-349.998 465,-424.998 715,-469.998 250.003,-45 690.003,-30 690.003,-30 l -15,419.998 c 0,0 -1580.7652,-262.772 -1205.386,558.61"
         id="path20" />
    </clipPath>
    <clipPath
       clipPathUnits="userSpaceOnUse"
       id="clipPath32">
      <path
         d="m 1236.44,58.8867 -165.8,5.2031 c 0,0 56.68,286.6722 450,316.6722 393.34,30 433.34,-53.332 553.34,-120 120,-66.672 163.33,-233.3284 163.33,-233.3284 l -166.07,5.2227 c 0,0 -55.07,89.9417 -102.89,126.3947 -95.53,72.855 -136.87,140.051 -440.52,131.125 -227.16,-6.68 -291.39,-231.2893 -291.39,-231.2893"
         id="path30" />
    </clipPath>
    <clipPath
       clipPathUnits="userSpaceOnUse"
       id="clipPath42">
      <path
         d="m 2708.98,2864.1 193.34,353.33 78.88,-120.25 407.78,-499.75 -886.66,-106.67 206.66,373.34"
         id="path40" />
    </clipPath>
    <clipPath
       clipPathUnits="userSpaceOnUse"
       id="clipPath52">
      <path
         d="m 4251.24,3205.11 -277.26,-571.01 605,30 -272.73,551.85 -55.01,-10.84 v 0"
         id="path50" />
    </clipPath>
    <clipPath
       clipPathUnits="userSpaceOnUse"
       id="clipPath62">
      <path
         d="m 2873.98,1084.1 c 0,0 45,345 495,430 450,85 545,-210 545,-210 l 70,85 240,-250 -450,-15 c 0,0 -100,295 -400,255 -300,-40 -500,-295 -500,-295"
         id="path60" />
    </clipPath>
    <clipPath
       clipPathUnits="userSpaceOnUse"
       id="clipPath72">
      <path
         d="m 3333.98,1309.1 c 0,0 190,30 430,40 240,10 575,25 810,-514.998 235,-540 110,-370 110,-370 l -410,-15 c 0,0 505,959.998 -940,859.998"
         id="path70" />
    </clipPath>
    <clipPath
       clipPathUnits="userSpaceOnUse"
       id="clipPath82">
      <path
         d="m 307.309,2987.44 c 0,0 253.332,346.66 766.671,366.66 513.33,20 520,-306.66 520,-306.66 l 160,86.66 233.33,-293.33 -626.67,-33.34 c 0,0 153.34,393.34 -333.33,393.34 -486.665,0 -720.001,-213.33 -720.001,-213.33"
         id="path80" />
    </clipPath>
    <clipPath
       clipPathUnits="userSpaceOnUse"
       id="clipPath92">
      <path
         d="m 3945.23,1770.98 40.62,-95 24.7,-21.88 -53.45,127.5 -11.87,-10.62"
         id="path90" />
    </clipPath>
    <clipPath
       clipPathUnits="userSpaceOnUse"
       id="clipPath104">
      <path
         d="m 2903.98,2294.1 c 0,0 -10.37,-642.41 383.34,-636.67 228.34,3.33 493.34,236.67 493.34,236.67 l 73.32,10 c 0,0 -313.34,-339.99 -640,-288.33 -326.66,51.66 -310,520 -310,678.33"
         id="path102" />
    </clipPath>
    <clipPath
       clipPathUnits="userSpaceOnUse"
       id="clipPath116">
      <path
         d="m 2903.98,2294.1 c 0,0 -49.8,-613.77 320,-660 293.34,-36.67 594.18,250 594.18,250 l -180.84,43.33 626.66,320 -253.32,-593.33 -55,125 c 0,0 -1105,-831.67 -1051.68,515"
         id="path114" />
    </clipPath>
    <clipPath
       clipPathUnits="userSpaceOnUse"
       id="clipPath126">
      <path
         d="m 2955.09,1810.91 c -39.59,115.54 -59.54,272.77 -51.21,483.19 0,0 -49.81,-613.77 320,-660 293.33,-36.67 594.17,250 594.17,250 l -180.84,43.33 626.67,320 -109.99,-257.6 c 0,0 -985,-802.8 -1198.8,-178.92"
         id="path124" />
    </clipPath>
    <clipPath
       clipPathUnits="userSpaceOnUse"
       id="clipPath136">
      <path
         d="m 4263.98,2247.43 -33.34,13.34 -623.34,-305 30.02,-28.34 626.66,320"
         id="path134" />
    </clipPath>
    <clipPath
       clipPathUnits="userSpaceOnUse"
       id="clipPath148">
      <path
         d="m 4263.98,2247.43 c 0,0 -113.75,-50.83 -297.5,-144.58 -183.75,-93.75 -329.16,-175.42 -329.16,-175.42 0,0 120.41,55.42 334.16,166.67 213.75,111.25 292.5,153.33 292.5,153.33"
         id="path146" />
    </clipPath>
    <clipPath
       clipPathUnits="userSpaceOnUse"
       id="clipPath160">
      <path
         d="m 3955.66,1779.1 c 0,0 13.32,-20 30.19,-60.62 16.88,-40.63 24.38,-61.88 24.38,-61.88 0,0 -41.65,90 -54.57,122.5"
         id="path158" />
    </clipPath>
    <clipPath
       clipPathUnits="userSpaceOnUse"
       id="clipPath172">
      <path
         d="m 3818.05,1884.1 c 0,0 -299.07,-268.33 -589.07,-238.33 0,0 -139.96,-5.58 -231.66,156.66 -92.09,162.92 -91.66,360 -91.66,360 0,0 -6.68,-483.33 318.22,-528.33 287.55,-39.82 594.17,250 594.17,250"
         id="path170" />
    </clipPath>
    <clipPath
       clipPathUnits="userSpaceOnUse"
       id="clipPath184">
      <path
         d="m 2183.96,177.422 c 0,0 227.52,305.43 307.52,341.68 80,36.25 138.75,-147.5 138.75,-147.5 l -140,252.5 -306.27,-446.68"
         id="path182" />
    </clipPath>
    <clipPath
       clipPathUnits="userSpaceOnUse"
       id="clipPath196">
      <path
         d="m 3173.98,906.602 -433.75,-753.75 -22.93,1.238 425.43,795.012 31.25,-42.5"
         id="path194" />
    </clipPath>
    <clipPath
       clipPathUnits="userSpaceOnUse"
       id="clipPath208">
      <path
         d="m 2804.59,974.09 22.71,-11.66 168.34,23.332 -6.66,26.668 -184.39,-38.34"
         id="path206" />
    </clipPath>
    <clipPath
       clipPathUnits="userSpaceOnUse"
       id="clipPath220">
      <path
         d="m 2183.96,177.422 c 0,0 233.34,516.668 300,556.668 66.67,40 243.34,-276.668 243.34,-276.668 l 263.33,549.998 -186.67,-33.33 426.67,353.33 V 834.09 l -86.67,100 -426.66,-780 c 0,0 -186.67,396.672 -240,390 -53.34,-6.668 -293.34,-366.668 -293.34,-366.668"
         id="path218" />
    </clipPath>
    <clipPath
       clipPathUnits="userSpaceOnUse"
       id="clipPath230">
      <path
         d="m 2763.54,531.797 227.72,475.623 -186.67,-33.33 426.67,353.33 V 834.09 l -86.67,100 -209.52,-383.035 z m -66.14,-22.422 c -53.54,88.066 -163.4,254.367 -212.81,224.715 -33.67,-20.203 -109.85,-162 -177.02,-297.41 l 86.13,28.476 c 36.94,44.688 68.6,76.981 84.23,78.934 13.58,1.699 35.8,-22.754 61.4,-60.152 l 158.07,25.437"
         id="path228" />
    </clipPath>
    <clipPath
       clipPathUnits="userSpaceOnUse"
       id="clipPath240">
      <path
         d="m 3231.26,1327.42 36.06,-14.98 -2.09,-504.588 -33.97,26.238 v 493.33"
         id="path238" />
    </clipPath>
    <clipPath
       clipPathUnits="userSpaceOnUse"
       id="clipPath252">
      <path
         d="m 3231.26,1327.42 c 0,0 3.97,-52.07 5.22,-234.57 1.25,-182.498 -5.22,-258.76 -5.22,-258.76 -4.01,222.45 -3.97,218.76 0,493.33"
         id="path250" />
    </clipPath>
    <clipPath
       clipPathUnits="userSpaceOnUse"
       id="clipPath264">
      <path
         d="m 3144.59,934.09 c 0,0 -104.36,-181.238 -203.11,-351.238 -98.75,-170 -224.18,-428.762 -224.18,-428.762 0,0 217.9,384.992 427.29,780"
         id="path262" />
    </clipPath>
    <clipPath
       clipPathUnits="userSpaceOnUse"
       id="clipPath276">
      <path
         d="m 2183.96,177.422 c 0,0 156.27,231.68 211.27,301.68 55,70 75,78.75 92.5,67.5 17.5,-11.25 16.25,-18.75 16.25,-18.75 0,0 -22.5,45 -103.75,-60 -81.25,-105 -216.27,-290.43 -216.27,-290.43"
         id="path274" />
    </clipPath>
    <clipPath
       clipPathUnits="userSpaceOnUse"
       id="clipPath288">
      <path
         d="M 2093.98,44.1016 2183.96,177.422 2143.98,4.10156 h -83.34 z M 2787.32,4.10156 2740.23,152.852 2717.3,154.09 2633.98,4.10156 h 153.34"
         id="path286" />
    </clipPath>
    <clipPath
       clipPathUnits="userSpaceOnUse"
       id="clipPath298">
      <path
         d="m 4191.24,3831.78 52.51,6.67 117.5,-110 -37.5,-50 -132.51,153.33"
         id="path296" />
    </clipPath>
    <clipPath
       clipPathUnits="userSpaceOnUse"
       id="clipPath310">
      <path
         d="m 4821.25,4908.45 72.73,15.65 c 0,0 13.98,-323.44 -70,-766.66 -60,-316.67 -197.73,-541.49 -197.73,-541.49 l -51.02,-22.68 246.02,1315.18"
         id="path308" />
    </clipPath>
    <clipPath
       clipPathUnits="userSpaceOnUse"
       id="clipPath320">
      <path
         d="m 4311.24,4778.44 c 0,0 100,-213.33 100,-526.66 0,-313.34 -86.66,-560 -86.66,-560 l -133.34,140 60,-626.67 486.67,386.67 -160,3.33 c 0,0 142.5,266.84 193.34,610.01 53.33,360 50,703.33 50,703.33 0,0 -230.01,-243.34 -510.01,-130.01"
         id="path318" />
    </clipPath>
    <clipPath
       clipPathUnits="userSpaceOnUse"
       id="clipPath330">
      <path
         d="m 4387.21,3957.44 c -0.54,-3.42 -1.1,-6.81 -1.65,-10.18 -25.55,-154.64 -60.98,-255.48 -60.98,-255.48 l -133.34,140 60,-626.67 486.67,386.67 -160,3.33 c 0,0 112.46,210.6 173.21,498.23 0.44,2.08 0.88,4.16 1.31,6.25 7.11,34.18 -351.6,-57.05 -365.22,-142.15"
         id="path328" />
    </clipPath>
    <clipPath
       clipPathUnits="userSpaceOnUse"
       id="clipPath340">
      <path
         d="m 4251.24,3205.11 55.01,10.84 502.5,390 -70.84,-14.17 -486.67,-386.67"
         id="path338" />
    </clipPath>
    <clipPath
       clipPathUnits="userSpaceOnUse"
       id="clipPath350">
      <path
         d="m 4577.91,3595.11 48.34,20.84 182.5,-10 -70.84,-14.17 -160,3.33"
         id="path348" />
    </clipPath>
    <clipPath
       clipPathUnits="userSpaceOnUse"
       id="clipPath362">
      <path
         d="m 4821.25,4908.45 c 0,0 -2.21,-379.84 -82.27,-789.35 -80,-409.16 -163.75,-525.83 -163.75,-525.83 0,0 93.16,109.32 177.2,506.32 84.05,397.01 68.82,808.86 68.82,808.86"
         id="path360" />
    </clipPath>
    <clipPath
       clipPathUnits="userSpaceOnUse"
       id="clipPath374">
      <path
         d="m 4737.91,3591.78 c 0,0 -108.93,-71.43 -206.43,-152.68 -97.5,-81.25 -280.24,-233.99 -280.24,-233.99 0,0 269.36,210.59 486.67,386.67"
         id="path372" />
    </clipPath>
    <clipPath
       clipPathUnits="userSpaceOnUse"
       id="clipPath386">
      <path
         d="m 4578.98,3594.93 c 0,0 16.87,-2.7 76.87,-4.58 60,-1.87 80.63,-0.62 80.63,-0.62 0,0 -50.63,8.74 -157.5,5.2"
         id="path384" />
    </clipPath>
    <clipPath
       clipPathUnits="userSpaceOnUse"
       id="clipPath398">
      <path
         d="m 4324.58,3691.78 c 0,0 -3.94,13.98 -54.76,65.65 -50.84,51.67 -78.58,74.35 -78.58,74.35 0,0 49.42,-58.51 69.42,-77.68 20,-19.16 37.84,-32.98 63.92,-62.32"
         id="path396" />
    </clipPath>
    <clipPath
       clipPathUnits="userSpaceOnUse"
       id="clipPath410">
      <path
         d="m 1338.01,1271.26 -41.01,11.18 -177.04,162.14 52.18,55.92 165.87,-229.24"
         id="path408" />
    </clipPath>
    <clipPath
       clipPathUnits="userSpaceOnUse"
       id="clipPath420">
      <path
         d="m 758.402,1560.14 -513.457,-993.351 55.91,-89.465 505.997,1079.086 -48.45,3.73"
         id="path418" />
    </clipPath>
    <clipPath
       clipPathUnits="userSpaceOnUse"
       id="clipPath432">
      <path
         d="M 300.855,477.324 806.852,1556.41 460.211,1416.63 1220.59,2255.29 1338.01,1271.26 1159.09,1483.72 862.762,499.676 300.855,477.324"
         id="path430" />
    </clipPath>
    <clipPath
       clipPathUnits="userSpaceOnUse"
       id="clipPath442">
      <path
         d="M 504.344,907.891 806.867,1555.48 460.211,1415.7 1220.6,2254.36 1338.01,1270.33 1159.1,1482.79 1060.91,1156.74 504.344,907.891"
         id="path440" />
    </clipPath>
    <clipPath
       clipPathUnits="userSpaceOnUse"
       id="clipPath452">
      <path
         d="m 1220.59,2255.29 -36.34,5.59 -810.707,-830.27 86.668,-13.98 760.379,838.66"
         id="path450" />
    </clipPath>
    <clipPath
       clipPathUnits="userSpaceOnUse"
       id="clipPath462">
      <path
         d="m 806.867,1555.48 c 0,0 -113.703,-207.8 -214.344,-427.73 C 491.883,907.832 300.855,477.324 300.855,477.324 c 0,0 189.18,406.289 506.012,1078.156"
         id="path460" />
    </clipPath>
    <clipPath
       clipPathUnits="userSpaceOnUse"
       id="clipPath472">
      <path
         d="m 1159.1,1482.79 c 0,0 58.69,-59.66 99.7,-111.83 41,-52.18 79.21,-100.63 79.21,-100.63 0,0 -61.49,60.57 -178.91,212.46"
         id="path470" />
    </clipPath>
    <clipPath
       clipPathUnits="userSpaceOnUse"
       id="clipPath482">
      <path
         d="m 1220.59,2255.29 c 0,0 -152.82,-150.95 -324.277,-342.92 -171.465,-191.97 -436.102,-495.74 -436.102,-495.74 0,0 413.734,408.15 760.379,838.66"
         id="path480" />
    </clipPath>
    <clipPath
       clipPathUnits="userSpaceOnUse"
       id="clipPath492">
      <path
         d="m 253.977,384.102 46.878,93.222 561.907,22.352 121.215,-410.5744 -590,-20 -140,315.0004"
         id="path490" />
    </clipPath>
    <clipPath
       clipPathUnits="userSpaceOnUse"
       id="clipPath502">
      <path
         d="m 3356.54,445.762 h 948.92 V 108.281 l 624.36,534.211 0.58,50.594 -625.05,490.154 V 841.348 h -948.92 l 0.11,-395.586"
         id="path500" />
    </clipPath>
    <clipPath
       clipPathUnits="userSpaceOnUse"
       id="clipPath514">
      <path
         d="m 3357.12,496.359 h 948.92 V 158.875 L 4930.4,693.086 4305.93,1233.82 V 891.934 H 3357 l 0.12,-395.575"
         id="path512" />
    </clipPath>
    <clipPath
       clipPathUnits="userSpaceOnUse"
       id="clipPath524">
      <path
         d="m 3357.64,710.527 c 0,0 246.12,121.719 832.69,62.606 586.56,-59.121 596.5,44.855 596.5,44.855 L 4306.5,1233.91 V 892.012 h -948.91 l 0.05,-181.485"
         id="path522" />
    </clipPath>
    <clipPath
       clipPathUnits="userSpaceOnUse"
       id="clipPath534">
      <path
         d="m 4930.4,693.086 c 0,0 -121.18,-90.586 -283.44,-228.191 -162.25,-137.61 -343.01,-312.2 -343.01,-312.2 0,0 178.7,158.153 347.12,299.875 168.42,141.719 279.33,240.516 279.33,240.516"
         id="path532" />
    </clipPath>
    <clipPath
       clipPathUnits="userSpaceOnUse"
       id="clipPath544">
      <path
         d="m 3357.12,496.359 c 0,0 139.66,3.446 455.96,7.555 316.3,4.113 492.96,-7.555 492.96,-7.555 0,0 -184.88,1.395 -492.96,-2.707 -308.09,-4.113 -455.96,2.707 -455.96,2.707"
         id="path542" />
    </clipPath>
    <clipPath
       clipPathUnits="userSpaceOnUse"
       id="clipPath554">
      <path
         d="M 4305.46,108.281 4303.98,17.4336 4440.64,4.10156 4305.46,108.281"
         id="path552" />
    </clipPath>
    <clipPath
       clipPathUnits="userSpaceOnUse"
       id="clipPath564">
      <path
         d="m 1287.32,3759.1 c 0,0 -68.34,-187.5 -338.343,-255 -409.602,-102.4 -710,267.5 -710,267.5 0,0 267.5,-302.5 492.5,-340 225,-37.5 415.003,5 590.003,140 175,135 70,187.5 70,187.5 h -104.16"
         id="path562" />
    </clipPath>
    <clipPath
       clipPathUnits="userSpaceOnUse"
       id="clipPath576">
      <path
         d="m 1749.39,3502.01 -70.41,24.59 -105,80 28.75,18.75 146.66,-123.34"
         id="path574" />
    </clipPath>
    <clipPath
       clipPathUnits="userSpaceOnUse"
       id="clipPath586">
      <path
         d="m 233.977,3784.1 c 0,0 256.668,-306.67 550,-320 439.593,-19.98 556.663,280 556.663,280 l -286.66,50 680,410 16.66,-703.34 -146.66,123.34 c 0,0 -686.664,-700.01 -1370.003,160"
         id="path584" />
    </clipPath>
    <clipPath
       clipPathUnits="userSpaceOnUse"
       id="clipPath596">
      <path
         d="m 285.02,3722.53 c -0.125,0.15 -0.266,0.6 -0.149,0.47 719.109,-792.23 1455.649,153.71 1455.649,153.71 l 8.87,-374.7 -146.66,123.34 c 0,0 -652.074,-664.74 -1317.71,97.18"
         id="path594" />
    </clipPath>
    <clipPath
       clipPathUnits="userSpaceOnUse"
       id="clipPath606">
      <path
         d="m 1733.98,4204.1 -50,27.5 -680,-405 50,-32.5 680,410"
         id="path604" />
    </clipPath>
    <clipPath
       clipPathUnits="userSpaceOnUse"
       id="clipPath618">
      <path
         d="m 1733.98,4204.1 c 0,0 -100,-50 -300,-173.33 -200,-123.33 -380,-236.67 -380,-236.67 0,0 208.32,113.33 386.65,225 178.35,111.67 293.35,185 293.35,185"
         id="path616" />
    </clipPath>
    <clipPath
       clipPathUnits="userSpaceOnUse"
       id="clipPath628">
      <path
         d="m 1340.64,3744.1 c 0,0 -102.91,-185 -304.16,-243.75 -201.253,-58.75 -328.753,-20 -365.003,-13.75 -36.25,6.25 -66.25,18.75 -66.25,18.75 0,0 12.5,-8.75 68.75,-26.25 56.25,-17.5 186.25,-46.25 375.003,11.25 188.75,57.5 291.66,253.75 291.66,253.75"
         id="path626" />
    </clipPath>
    <clipPath
       clipPathUnits="userSpaceOnUse"
       id="clipPath638">
      <path
         d="m 669.355,4368.29 c 0,0 68.633,189.16 339.815,257.26 411.41,103.31 713.12,-269.87 713.12,-269.87 0,0 -268.67,305.18 -494.66,343.01 -225.99,37.83 -416.817,-5.05 -592.591,-141.24 -175.769,-136.19 -70.301,-189.16 -70.301,-189.16 h 104.617"
         id="path636" />
    </clipPath>
    <clipPath
       clipPathUnits="userSpaceOnUse"
       id="clipPath650">
      <path
         d="m 205.246,4627.66 70.719,-24.81 105.473,-80.71 -28.891,-18.92 -147.301,124.44"
         id="path648" />
    </clipPath>
    <clipPath
       clipPathUnits="userSpaceOnUse"
       id="clipPath660">
      <path
         d="m 1727.32,4343.07 c 0,0 -257.8,309.38 -552.43,322.83 -441.519,20.17 -559.101,-282.47 -559.101,-282.47 l 287.93,-50.45 -682.985,-413.62 -16.75,709.55 147.313,-124.43 c 0,0 689.683,706.22 1376.023,-161.41"
         id="path658" />
    </clipPath>
    <clipPath
       clipPathUnits="userSpaceOnUse"
       id="clipPath670">
      <path
         d="m 1676.04,4405.19 c 0.14,-0.15 0.26,-0.6 0.15,-0.48 C 953.938,5203.96 214.16,4249.65 214.16,4249.65 l -8.914,378.01 147.301,-124.44 c 0,0 654.943,670.64 1323.493,-98.03"
         id="path668" />
    </clipPath>
    <clipPath
       clipPathUnits="userSpaceOnUse"
       id="clipPath680">
      <path
         d="m 220.734,3919.36 50.215,-27.75 682.989,408.59 -50.219,32.78 -682.985,-413.62"
         id="path678" />
    </clipPath>
    <clipPath
       clipPathUnits="userSpaceOnUse"
       id="clipPath692">
      <path
         d="m 220.734,3919.36 c 0,0 100.43,50.43 301.305,174.86 200.879,124.42 381.68,238.76 381.68,238.76 0,0 -209.258,-114.33 -388.367,-226.98 C 336.23,3993.33 220.734,3919.36 220.734,3919.36"
         id="path690" />
    </clipPath>
    <clipPath
       clipPathUnits="userSpaceOnUse"
       id="clipPath702">
      <path
         d="m 615.789,4383.43 c 0,0 103.363,186.63 305.5,245.91 202.141,59.27 330.191,20.17 366.611,13.86 36.41,-6.31 66.53,-18.91 66.53,-18.91 0,0 -12.55,8.83 -69.05,26.48 -56.49,17.66 -187.07,46.66 -376.638,-11.35 -189.59,-58.01 -292.953,-255.99 -292.953,-255.99"
         id="path700" />
    </clipPath>
    <clipPath
       clipPathUnits="userSpaceOnUse"
       id="clipPath712">
      <path
         d="m 1602.73,3625.35 c 0,0 30,-18.75 65.84,-50.83 35.82,-32.08 80.82,-72.51 80.82,-72.51 0,0 -109.59,86.67 -146.66,123.34"
         id="path710" />
    </clipPath>
    <clipPath
       clipPathUnits="userSpaceOnUse"
       id="clipPath722">
      <path
         d="m 205.246,4627.66 c 0,0 51.231,-36.07 83.731,-63.57 32.5,-27.5 63.57,-60.87 63.57,-60.87 0,0 -73.543,56.33 -147.301,124.44"
         id="path720" />
    </clipPath>
    <clipPath
       clipPathUnits="userSpaceOnUse"
       id="clipPath732">
      <path
         d="m 4117.85,3156.92 -10,-73.59 -93.76,-144.97 -44.71,44 148.47,174.56"
         id="path730" />
    </clipPath>
    <clipPath
       clipPathUnits="userSpaceOnUse"
       id="clipPath742">
      <path
         d="m 3892.92,2607.29 c 0,0 337.56,-51.93 463.07,-298.61 125.49,-246.67 34.61,-549.61 -86.57,-688.09 -121.17,-138.49 -334.6,-194.04 -510.66,-222.16 -207.72,-33.17 -445.85,-15.84 -445.85,-15.84 0,0 406.91,-51.96 614.64,12.96 207.72,64.92 527.97,168.78 631.83,558.28 103.85,389.47 -17.32,545.27 -263.99,683.76 -246.67,138.48 -419.77,116.84 -419.77,116.84 l 17.3,-147.14"
         id="path740" />
    </clipPath>
    <clipPath
       clipPathUnits="userSpaceOnUse"
       id="clipPath754">
      <path
         d="m 3312.91,1382.59 c 0,0 972.3,-141.45 1142.51,484.7 203.49,748.66 -553.94,813.59 -553.94,813.59 l -25.97,-294.28 -856.88,493.35 1099.22,276.97 -138.47,-181.76 c 0,0 982.21,-45.29 741.46,-983.81 -209.07,-815.06 -1407.93,-608.76 -1407.93,-608.76"
         id="path752" />
    </clipPath>
    <clipPath
       clipPathUnits="userSpaceOnUse"
       id="clipPath768">
      <path
         d="m 3314.35,1381.14 c 0,0 972.3,-141.44 1142.5,484.69 24.24,89.17 34.85,168.64 34.72,239.46 -0.02,8.82 -0.53,26.06 -0.53,26.06 0,0 21.12,97.36 118.3,165.49 97.18,68.1 148.84,28.73 148.84,28.73 0,0 0.93,-14.11 1.24,-21.28 4.15,-91.69 -6.76,-195.93 -37.13,-314.4 -209.08,-815.05 -1407.94,-608.75 -1407.94,-608.75"
         id="path766" />
    </clipPath>
    <clipPath
       clipPathUnits="userSpaceOnUse"
       id="clipPath778">
      <path
         d="m 3018.63,2879.95 -1.34,-64.93 848.22,-513.56 10,85.14 -856.88,493.35"
         id="path776" />
    </clipPath>
    <clipPath
       clipPathUnits="userSpaceOnUse"
       id="clipPath790">
      <path
         d="m 3018.63,2879.95 c 0,0 205.67,-99.55 443.69,-235.87 238.02,-136.32 413.19,-257.48 413.19,-257.48 0,0 -255.22,138.47 -421.85,235.84 -166.61,97.37 -435.03,257.51 -435.03,257.51"
         id="path788" />
    </clipPath>
    <clipPath
       clipPathUnits="userSpaceOnUse"
       id="clipPath800">
      <path
         d="m 4117.85,3156.92 c 0,0 -38.83,-41.13 -75.62,-89.81 -36.8,-48.69 -62.85,-91.95 -62.85,-91.95 0,0 29.31,34.6 70.41,87.62 41.12,53.01 68.06,94.14 68.06,94.14"
         id="path798" />
    </clipPath>
    <clipPath
       clipPathUnits="userSpaceOnUse"
       id="clipPath810">
      <path
         d="m 3901.48,2680.88 c 0,0 393.91,-43.29 523.75,-264 146.53,-249.09 66.34,-552.5 -11.54,-690.99 -77.9,-138.48 -210.6,-223.59 -294.28,-258.2 -83.67,-34.62 -210.61,-63.49 -210.61,-63.49 0,0 135.58,34.63 204.83,69.26 69.24,34.61 222.16,131.25 284.18,256.75 62.03,125.51 160.39,414.09 5.77,678.01 -125.49,214.22 -502.1,272.66 -502.1,272.66"
         id="path808" />
    </clipPath>
    <clipPath
       clipPathUnits="userSpaceOnUse"
       id="clipPath820">
      <path
         d="m 4014.08,3784.39 -115.39,49.06 -390.94,21.64 15.87,-53.39 490.46,-17.31"
         id="path818" />
    </clipPath>
    <clipPath
       clipPathUnits="userSpaceOnUse"
       id="clipPath830">
      <path
         d="m 1997.41,3671.88 c 0,0 168.77,939.1 819.35,877.07 542.45,-51.72 294.28,-553.93 294.28,-553.93 l 138.49,-121.18 103.86,582.79 c 0,0 -196.18,161.56 -380.83,190.41 -184.65,28.85 -490.46,-31.74 -646.26,-204.84 -155.79,-173.11 -314.47,-556.83 -328.89,-770.32"
         id="path828" />
    </clipPath>
    <clipPath
       clipPathUnits="userSpaceOnUse"
       id="clipPath842">
      <path
         d="m 1997.41,3671.88 c 0,0 138.06,912.41 727.04,926.11 744.35,17.31 441.42,-631.83 441.42,-631.83 l -346.21,311.59 86.54,-1090.57 1107.88,597.21 -458.72,17.31 c 0,0 173.72,385.64 -43.28,692.43 -251.01,354.87 -1315.6,545.28 -1514.67,-822.25"
         id="path840" />
    </clipPath>
    <clipPath
       clipPathUnits="userSpaceOnUse"
       id="clipPath852">
      <path
         d="m 3197.29,4391.38 c 1.16,-2.67 2.26,-5.34 3.34,-8.04 72.89,-183.09 -35.84,-416.1 -35.84,-416.1 l -346.22,311.59 86.56,-1090.57 1107.88,597.22 -458.73,17.31 c 0,0 105.68,234.6 49.22,483.41 -0.45,2.03 -0.92,4.06 -1.41,6.09 -16.19,68.22 -456.04,217.92 -404.8,99.09"
         id="path850" />
    </clipPath>
    <clipPath
       clipPathUnits="userSpaceOnUse"
       id="clipPath862">
      <path
         d="m 2819.66,4277.75 -92.34,49.04 100.99,-1047.29 77.89,-92.32 -86.54,1090.57"
         id="path860" />
    </clipPath>
    <clipPath
       clipPathUnits="userSpaceOnUse"
       id="clipPath874">
      <path
         d="m 2819.66,4277.75 c 0,0 8.65,-201.24 30.29,-497.68 21.64,-296.45 56.25,-592.89 56.25,-592.89 0,0 -12.97,272.64 -36.78,599.38 -23.79,326.74 -49.76,491.19 -49.76,491.19"
         id="path872" />
    </clipPath>
    <clipPath
       clipPathUnits="userSpaceOnUse"
       id="clipPath886">
      <path
         d="m 3554.28,3802.79 c 0,0 46.51,3.25 189.33,1.08 142.82,-2.17 269.4,-18.39 269.4,-18.39 0,0 -137.4,-5.41 -458.73,17.31"
         id="path884" />
    </clipPath>
    <clipPath
       clipPathUnits="userSpaceOnUse"
       id="clipPath898">
      <path
         d="m 3164.79,3967.24 c 0,0 142.45,326.37 9.73,496.59 -144.75,185.69 -525.09,181.77 -701.08,72.13 -151.37,-94.28 -201.23,-188.97 -201.23,-188.97 0,0 89.45,119.5 207.73,181.76 123.33,64.91 483.46,137.89 681.6,-80.06 122.62,-134.89 3.25,-481.45 3.25,-481.45"
         id="path896" />
    </clipPath>
    <clipPath
       clipPathUnits="userSpaceOnUse"
       id="clipPath910">
      <path
         d="m 1208.34,3158.34 15.86,-57.7 201.96,-129.82 63.48,27.4 -281.3,160.12"
         id="path908" />
    </clipPath>
    <clipPath
       clipPathUnits="userSpaceOnUse"
       id="clipPath922">
      <path
         d="m 423.594,1692.71 c 0,0 -243.789,243.79 163.008,602.99 406.796,359.19 986.698,285.62 986.698,285.62 l 181.77,173.11 c 0,0 -956.414,34.62 -1255.027,-281.3 -298.602,-315.92 -251,-527.97 -229.359,-601.54 21.636,-73.56 152.91,-178.88 152.91,-178.88"
         id="path920" />
    </clipPath>
    <clipPath
       clipPathUnits="userSpaceOnUse"
       id="clipPath934">
      <path
         d="m 423.594,1692.71 c 0,0 -288.5,161.58 57.703,571.27 379.555,449.14 1107.883,392.36 1107.883,392.36 l -51.93,-282.73 969.39,551.04 -1298.3,233.69 248.12,-155.79 c 0,0 -767.433,-11.53 -1099.218,-484.7 -415.7654,-592.94 66.352,-825.14 66.352,-825.14"
         id="path932" />
    </clipPath>
    <clipPath
       clipPathUnits="userSpaceOnUse"
       id="clipPath946">
      <path
         d="m 423.594,1692.71 c 0,0 -288.5,161.58 57.703,571.27 130.594,154.52 302.461,249.16 471.75,306.84 5.226,1.78 10.441,3.52 15.656,5.25 317.157,103.91 -202.926,416.09 -557.101,11.04 -2.247,-2.58 -4.489,-5.16 -6.707,-7.77 -16.707,-19.59 -32.633,-40.05 -47.653,-61.49 -415.7654,-592.94 66.352,-825.14 66.352,-825.14"
         id="path944" />
    </clipPath>
    <clipPath
       clipPathUnits="userSpaceOnUse"
       id="clipPath958">
      <path
         d="m 1537.25,2373.61 36.05,-56.27 956.41,549.61 -23.07,57.7 -969.39,-551.04"
         id="path956" />
    </clipPath>
    <clipPath
       clipPathUnits="userSpaceOnUse"
       id="clipPath970">
      <path
         d="m 2506.64,2924.65 c 0,0 -233.69,-119.72 -447.19,-239.46 -213.51,-119.73 -522.2,-311.58 -522.2,-311.58 0,0 307.25,174.53 525.07,297.16 217.84,122.61 444.32,253.88 444.32,253.88"
         id="path968" />
    </clipPath>
    <clipPath
       clipPathUnits="userSpaceOnUse"
       id="clipPath982">
      <path
         d="m 1208.34,3158.34 c 0,0 68.52,-37.68 125.86,-75.55 57.34,-37.86 122.26,-80.24 122.26,-80.24 0,0 -69.78,39.13 -127.13,76.46 -57.34,37.32 -120.99,79.33 -120.99,79.33"
         id="path980" />
    </clipPath>
    <clipPath
       clipPathUnits="userSpaceOnUse"
       id="clipPath994">
      <path
         d="m 1589.18,2656.34 c 0,0 -431.33,24.52 -723.446,-100.98 -253.929,-109.09 -386.832,-231.18 -497.105,-433.88 -0.195,-0.36 -0.395,-0.69 -0.574,-1.05 C 276.445,1936.5 324.777,1811 324.777,1811 c 0,0 -40.496,133.45 56.262,305.11 111.801,198.34 305.215,342.68 491.188,419.78 266.153,110.35 716.953,120.45 716.953,120.45"
         id="path992" />
    </clipPath>
    <clipPath
       clipPathUnits="userSpaceOnUse"
       id="clipPath1008">
      <path
         d="m 2835.54,1308.72 -89.83,41.26 -137.89,136.32 50.14,70.5 177.58,-248.08"
         id="path1006" />
    </clipPath>
    <clipPath
       clipPathUnits="userSpaceOnUse"
       id="clipPath1020">
      <path
         d="m 1160.1,1066.39 213.08,-27.16 c 0,0 -109.68,-392.757 158.25,-502.425 226.86,-92.86 301.36,49.093 422.52,95.062 121.16,45.957 121.16,45.957 121.16,45.957 0,0 -259.04,-213.086 -509.73,-213.086 -250.68,0 -309.19,45.965 -388.57,175.485 -79.39,129.515 -41.78,334.238 -41.78,334.238 l 25.07,91.929"
         id="path1018" />
    </clipPath>
    <clipPath
       clipPathUnits="userSpaceOnUse"
       id="clipPath1030">
      <path
         d="m 2371.23,1534.86 c 0,0 -425.64,-1437.8092 -1029.39,-1088.934 -377.899,218.379 -181.74,620.464 -181.74,620.464 0,0 -125.2,-381.167 194.28,-545.245 536.89,-275.766 921.29,1027.815 921.29,1027.815 l 95.56,-14.1"
         id="path1028" />
    </clipPath>
    <clipPath
       clipPathUnits="userSpaceOnUse"
       id="clipPath1044">
      <path
         d="m 2695.57,2225.83 -783.41,-789.67 451.24,81.47 c 0,0 -78.34,-241.29 -181.75,-457.5 C 2078.24,843.906 1974.84,668.418 1858.9,561.883 1742.95,455.34 1644.51,394.23 1540.05,391.105 c -44.85,-1.351 219.61,0.633 306.31,4.696 178.62,8.351 399.71,218.613 621.5,695.659 221.45,476.3 192.2,434.52 192.2,434.52 l 175.48,-217.26 -139.97,917.11"
         id="path1042" />
    </clipPath>
    <clipPath
       clipPathUnits="userSpaceOnUse"
       id="clipPath1054">
      <path
         d="m 1940.25,648.965 c -2.25,-2.785 -4.5,-5.547 -6.75,-8.293 -24.1,-29.324 -48.68,-55.68 -73.83,-78.789 C 1743.73,455.34 1645.29,394.23 1540.82,391.105 c -44.84,-1.351 219.62,0.633 306.32,4.696 148.84,6.953 327.16,154.101 510.8,478.965 0.93,1.648 1.85,3.289 2.77,4.933 35.84,63.727 -336.02,-125.726 -420.46,-230.734"
         id="path1052" />
    </clipPath>
    <clipPath
       clipPathUnits="userSpaceOnUse"
       id="clipPath1064">
      <path
         d="m 2695.57,2225.83 -77.31,14.63 -789.66,-752.08 83.56,-52.22 783.41,789.67"
         id="path1062" />
    </clipPath>
    <clipPath
       clipPathUnits="userSpaceOnUse"
       id="clipPath1076">
      <path
         d="m 2695.57,2225.83 c 0,0 -185.93,-171.31 -367.68,-353.06 -181.75,-181.75 -415.73,-436.61 -415.73,-436.61 0,0 428.27,413.63 783.41,789.67"
         id="path1074" />
    </clipPath>
    <clipPath
       clipPathUnits="userSpaceOnUse"
       id="clipPath1088">
      <path
         d="m 2363.4,1517.63 c 0,0 -244.42,-637.173 -415.72,-852.337 -229.75,-288.613 -406.86,-274.188 -406.86,-274.188 0,0 214.66,-7.843 421.48,272.098 206.82,279.922 401.1,854.427 401.1,854.427"
         id="path1086" />
    </clipPath>
    <clipPath
       clipPathUnits="userSpaceOnUse"
       id="clipPath1100">
      <path
         d="m 1160.1,1066.39 c 0,0 -88.04,-277.23 81.47,-451.242 177.06,-181.75 366.63,-114.375 366.63,-114.375 0,0 -175.47,-90.878 -376.03,109.676 -159.03,159.035 -72.07,455.941 -72.07,455.941"
         id="path1098" />
    </clipPath>
    <clipPath
       clipPathUnits="userSpaceOnUse"
       id="clipPath820-8">
      <path
         inkscape:connector-curvature="0"
         d="m 4014.08,3784.39 -115.39,49.06 -390.94,21.64 15.87,-53.39 490.46,-17.31"
         id="path818-5" />
    </clipPath>
    <clipPath
       clipPathUnits="userSpaceOnUse"
       id="clipPath830-3">
      <path
         inkscape:connector-curvature="0"
         d="m 1997.41,3671.88 c 0,0 168.77,939.1 819.35,877.07 542.45,-51.72 294.28,-553.93 294.28,-553.93 l 138.49,-121.18 103.86,582.79 c 0,0 -196.18,161.56 -380.83,190.41 -184.65,28.85 -490.46,-31.74 -646.26,-204.84 -155.79,-173.11 -314.47,-556.83 -328.89,-770.32"
         id="path828-5" />
    </clipPath>
    <clipPath
       clipPathUnits="userSpaceOnUse"
       id="clipPath842-6">
      <path
         inkscape:connector-curvature="0"
         d="m 1997.41,3671.88 c 0,0 138.06,912.41 727.04,926.11 744.35,17.31 441.42,-631.83 441.42,-631.83 l -346.21,311.59 86.54,-1090.57 1107.88,597.21 -458.72,17.31 c 0,0 173.72,385.64 -43.28,692.43 -251.01,354.87 -1315.6,545.28 -1514.67,-822.25"
         id="path840-3" />
    </clipPath>
    <clipPath
       clipPathUnits="userSpaceOnUse"
       id="clipPath852-5">
      <path
         inkscape:connector-curvature="0"
         d="m 3197.29,4391.38 c 1.16,-2.67 2.26,-5.34 3.34,-8.04 72.89,-183.09 -35.84,-416.1 -35.84,-416.1 l -346.22,311.59 86.56,-1090.57 1107.88,597.22 -458.73,17.31 c 0,0 105.68,234.6 49.22,483.41 -0.45,2.03 -0.92,4.06 -1.41,6.09 -16.19,68.22 -456.04,217.92 -404.8,99.09"
         id="path850-6" />
    </clipPath>
    <clipPath
       clipPathUnits="userSpaceOnUse"
       id="clipPath862-6">
      <path
         inkscape:connector-curvature="0"
         d="m 2819.66,4277.75 -92.34,49.04 100.99,-1047.29 77.89,-92.32 -86.54,1090.57"
         id="path860-4" />
    </clipPath>
    <clipPath
       clipPathUnits="userSpaceOnUse"
       id="clipPath874-7">
      <path
         inkscape:connector-curvature="0"
         d="m 2819.66,4277.75 c 0,0 8.65,-201.24 30.29,-497.68 21.64,-296.45 56.25,-592.89 56.25,-592.89 0,0 -12.97,272.64 -36.78,599.38 -23.79,326.74 -49.76,491.19 -49.76,491.19"
         id="path872-7" />
    </clipPath>
    <clipPath
       clipPathUnits="userSpaceOnUse"
       id="clipPath886-5">
      <path
         inkscape:connector-curvature="0"
         d="m 3554.28,3802.79 c 0,0 46.51,3.25 189.33,1.08 142.82,-2.17 269.4,-18.39 269.4,-18.39 0,0 -137.4,-5.41 -458.73,17.31"
         id="path884-3" />
    </clipPath>
    <clipPath
       clipPathUnits="userSpaceOnUse"
       id="clipPath898-0">
      <path
         inkscape:connector-curvature="0"
         d="m 3164.79,3967.24 c 0,0 142.45,326.37 9.73,496.59 -144.75,185.69 -525.09,181.77 -701.08,72.13 -151.37,-94.28 -201.23,-188.97 -201.23,-188.97 0,0 89.45,119.5 207.73,181.76 123.33,64.91 483.46,137.89 681.6,-80.06 122.62,-134.89 3.25,-481.45 3.25,-481.45"
         id="path896-6" />
    </clipPath>
    <clipPath
       clipPathUnits="userSpaceOnUse"
       id="clipPath820-8-5">
      <path
         inkscape:connector-curvature="0"
         d="m 4014.08,3784.39 -115.39,49.06 -390.94,21.64 15.87,-53.39 490.46,-17.31"
         id="path818-5-3" />
    </clipPath>
    <clipPath
       clipPathUnits="userSpaceOnUse"
       id="clipPath830-3-3">
      <path
         inkscape:connector-curvature="0"
         d="m 1997.41,3671.88 c 0,0 168.77,939.1 819.35,877.07 542.45,-51.72 294.28,-553.93 294.28,-553.93 l 138.49,-121.18 103.86,582.79 c 0,0 -196.18,161.56 -380.83,190.41 -184.65,28.85 -490.46,-31.74 -646.26,-204.84 -155.79,-173.11 -314.47,-556.83 -328.89,-770.32"
         id="path828-5-3" />
    </clipPath>
    <clipPath
       clipPathUnits="userSpaceOnUse"
       id="clipPath842-6-6">
      <path
         inkscape:connector-curvature="0"
         d="m 1997.41,3671.88 c 0,0 138.06,912.41 727.04,926.11 744.35,17.31 441.42,-631.83 441.42,-631.83 l -346.21,311.59 86.54,-1090.57 1107.88,597.21 -458.72,17.31 c 0,0 173.72,385.64 -43.28,692.43 -251.01,354.87 -1315.6,545.28 -1514.67,-822.25"
         id="path840-3-5" />
    </clipPath>
    <clipPath
       clipPathUnits="userSpaceOnUse"
       id="clipPath852-5-4">
      <path
         inkscape:connector-curvature="0"
         d="m 3197.29,4391.38 c 1.16,-2.67 2.26,-5.34 3.34,-8.04 72.89,-183.09 -35.84,-416.1 -35.84,-416.1 l -346.22,311.59 86.56,-1090.57 1107.88,597.22 -458.73,17.31 c 0,0 105.68,234.6 49.22,483.41 -0.45,2.03 -0.92,4.06 -1.41,6.09 -16.19,68.22 -456.04,217.92 -404.8,99.09"
         id="path850-6-4" />
    </clipPath>
    <clipPath
       clipPathUnits="userSpaceOnUse"
       id="clipPath862-6-1">
      <path
         inkscape:connector-curvature="0"
         d="m 2819.66,4277.75 -92.34,49.04 100.99,-1047.29 77.89,-92.32 -86.54,1090.57"
         id="path860-4-2" />
    </clipPath>
    <clipPath
       clipPathUnits="userSpaceOnUse"
       id="clipPath874-7-3">
      <path
         inkscape:connector-curvature="0"
         d="m 2819.66,4277.75 c 0,0 8.65,-201.24 30.29,-497.68 21.64,-296.45 56.25,-592.89 56.25,-592.89 0,0 -12.97,272.64 -36.78,599.38 -23.79,326.74 -49.76,491.19 -49.76,491.19"
         id="path872-7-7" />
    </clipPath>
    <clipPath
       clipPathUnits="userSpaceOnUse"
       id="clipPath886-5-5">
      <path
         inkscape:connector-curvature="0"
         d="m 3554.28,3802.79 c 0,0 46.51,3.25 189.33,1.08 142.82,-2.17 269.4,-18.39 269.4,-18.39 0,0 -137.4,-5.41 -458.73,17.31"
         id="path884-3-2" />
    </clipPath>
    <clipPath
       clipPathUnits="userSpaceOnUse"
       id="clipPath898-0-4">
      <path
         inkscape:connector-curvature="0"
         d="m 3164.79,3967.24 c 0,0 142.45,326.37 9.73,496.59 -144.75,185.69 -525.09,181.77 -701.08,72.13 -151.37,-94.28 -201.23,-188.97 -201.23,-188.97 0,0 89.45,119.5 207.73,181.76 123.33,64.91 483.46,137.89 681.6,-80.06 122.62,-134.89 3.25,-481.45 3.25,-481.45"
         id="path896-6-9" />
    </clipPath>
    <clipPath
       clipPathUnits="userSpaceOnUse"
       id="clipPath820-8-5-6">
      <path
         inkscape:connector-curvature="0"
         d="m 4014.08,3784.39 -115.39,49.06 -390.94,21.64 15.87,-53.39 490.46,-17.31"
         id="path818-5-3-8" />
    </clipPath>
    <clipPath
       clipPathUnits="userSpaceOnUse"
       id="clipPath830-3-3-6">
      <path
         inkscape:connector-curvature="0"
         d="m 1997.41,3671.88 c 0,0 168.77,939.1 819.35,877.07 542.45,-51.72 294.28,-553.93 294.28,-553.93 l 138.49,-121.18 103.86,582.79 c 0,0 -196.18,161.56 -380.83,190.41 -184.65,28.85 -490.46,-31.74 -646.26,-204.84 -155.79,-173.11 -314.47,-556.83 -328.89,-770.32"
         id="path828-5-3-6" />
    </clipPath>
    <clipPath
       clipPathUnits="userSpaceOnUse"
       id="clipPath842-6-6-9">
      <path
         inkscape:connector-curvature="0"
         d="m 1997.41,3671.88 c 0,0 138.06,912.41 727.04,926.11 744.35,17.31 441.42,-631.83 441.42,-631.83 l -346.21,311.59 86.54,-1090.57 1107.88,597.21 -458.72,17.31 c 0,0 173.72,385.64 -43.28,692.43 -251.01,354.87 -1315.6,545.28 -1514.67,-822.25"
         id="path840-3-5-7" />
    </clipPath>
    <clipPath
       clipPathUnits="userSpaceOnUse"
       id="clipPath852-5-4-3">
      <path
         inkscape:connector-curvature="0"
         d="m 3197.29,4391.38 c 1.16,-2.67 2.26,-5.34 3.34,-8.04 72.89,-183.09 -35.84,-416.1 -35.84,-416.1 l -346.22,311.59 86.56,-1090.57 1107.88,597.22 -458.73,17.31 c 0,0 105.68,234.6 49.22,483.41 -0.45,2.03 -0.92,4.06 -1.41,6.09 -16.19,68.22 -456.04,217.92 -404.8,99.09"
         id="path850-6-4-2" />
    </clipPath>
    <clipPath
       clipPathUnits="userSpaceOnUse"
       id="clipPath862-6-1-2">
      <path
         inkscape:connector-curvature="0"
         d="m 2819.66,4277.75 -92.34,49.04 100.99,-1047.29 77.89,-92.32 -86.54,1090.57"
         id="path860-4-2-6" />
    </clipPath>
    <clipPath
       clipPathUnits="userSpaceOnUse"
       id="clipPath874-7-3-6">
      <path
         inkscape:connector-curvature="0"
         d="m 2819.66,4277.75 c 0,0 8.65,-201.24 30.29,-497.68 21.64,-296.45 56.25,-592.89 56.25,-592.89 0,0 -12.97,272.64 -36.78,599.38 -23.79,326.74 -49.76,491.19 -49.76,491.19"
         id="path872-7-7-8" />
    </clipPath>
    <clipPath
       clipPathUnits="userSpaceOnUse"
       id="clipPath886-5-5-4">
      <path
         inkscape:connector-curvature="0"
         d="m 3554.28,3802.79 c 0,0 46.51,3.25 189.33,1.08 142.82,-2.17 269.4,-18.39 269.4,-18.39 0,0 -137.4,-5.41 -458.73,17.31"
         id="path884-3-2-8" />
    </clipPath>
    <clipPath
       clipPathUnits="userSpaceOnUse"
       id="clipPath898-0-4-7">
      <path
         inkscape:connector-curvature="0"
         d="m 3164.79,3967.24 c 0,0 142.45,326.37 9.73,496.59 -144.75,185.69 -525.09,181.77 -701.08,72.13 -151.37,-94.28 -201.23,-188.97 -201.23,-188.97 0,0 89.45,119.5 207.73,181.76 123.33,64.91 483.46,137.89 681.6,-80.06 122.62,-134.89 3.25,-481.45 3.25,-481.45"
         id="path896-6-9-2" />
    </clipPath>
  </defs>
  <sodipodi:namedview
     id="base"
     pagecolor="#ffffff"
     bordercolor="#666666"
     borderopacity="1.0"
     inkscape:pageopacity="0.0"
     inkscape:pageshadow="2"
     inkscape:zoom="0.98994949"
     inkscape:cx="218.71453"
     inkscape:cy="766.45376"
     inkscape:document-units="mm"
     inkscape:current-layer="layer1"
     showgrid="false"
     inkscape:window-width="1366"
     inkscape:window-height="705"
     inkscape:window-x="-8"
     inkscape:window-y="-8"
     inkscape:window-maximized="1" />
  <metadata
     id="metadata5">
    <rdf:RDF>
      <cc:Work
         rdf:about="">
        <dc:format>image/svg+xml</dc:format>
        <dc:type
           rdf:resource="http://purl.org/dc/dcmitype/StillImage" />
        <dc:title></dc:title>
      </cc:Work>
    </rdf:RDF>
  </metadata>
  <g
     inkscape:label="Layer 1"
     inkscape:groupmode="layer"
     id="layer1">
    <g
       id="g7180"
       style="opacity:0.95999995"
       inkscape:export-xdpi="28.34"
       inkscape:export-ydpi="28.34"
       transform="matrix(1.3763204,0,0,1.4254917,-38.550456,-24.773928)">
      <rect
         style="fill:#3684d3;fill-opacity:1;stroke:#3684d3;stroke-width:3.32578087;stroke-linecap:round;stroke-linejoin:round;stroke-miterlimit:4;stroke-dasharray:none;stroke-opacity:1"
         y="55.3932"
         x="37.450596"
         height="18.22493"
         width="49.014977"
         id="rect3713" />
      <text
         id="text7171"
         y="72.182449"
         x="40.416592"
         style="font-style:normal;font-weight:normal;font-size:10.58333302px;line-height:1.25;font-family:sans-serif;letter-spacing:0px;word-spacing:0px;fill:#000000;fill-opacity:1;stroke:none;stroke-width:0.26458332"
         xml:space="preserve"><tspan
           style="font-size:21.16666603px;stroke-width:0.26458332"
           y="72.182449"
           x="40.416592"
           id="tspan7169"
           sodipodi:role="line">123</tspan></text>
    </g>
    <g
       id="g7185"
       style="opacity:0.95999995"
       inkscape:export-xdpi="28.34"
       inkscape:export-ydpi="28.34"
       transform="matrix(1.4756486,0,0,1.4445162,-22.231606,-43.031943)">
      <rect
         style="fill:#d38400;fill-opacity:1;stroke:#d38400;stroke-width:2.97389746;stroke-linecap:round;stroke-linejoin:round;stroke-miterlimit:4;stroke-dasharray:none;stroke-opacity:1"
         y="89.143852"
         x="23.638605"
         height="15.472241"
         width="46.164288"
         id="rect3713-7" />
      <text
         id="text7175"
         y="104.23215"
         x="27.592262"
         style="font-style:normal;font-weight:normal;font-size:10.58333302px;line-height:1.25;font-family:sans-serif;letter-spacing:0px;word-spacing:0px;fill:#000000;fill-opacity:1;stroke:none;stroke-width:0.26458332"
         xml:space="preserve"><tspan
           style="font-size:21.16666603px;stroke-width:0.26458332"
           y="104.23215"
           x="27.592262"
           id="tspan7173"
           sodipodi:role="line">321</tspan></text>
    </g>
    <g
       id="g10-7-5-1"
       transform="matrix(0.11172695,0.19351676,0.19351676,-0.11172695,-22.714869,39.368421)"
       style="opacity:0.95999995"
       inkscape:export-xdpi="28.34"
       inkscape:export-ydpi="28.34">
      <g
         id="g6861-7-5-0"
         transform="translate(-13.928572,-106.07143)"
         style="fill:#ff6b25;fill-opacity:1">
        <g
           transform="matrix(0.1,0,0,0.1,151.75229,36.554091)"
           id="g814-4-2-6"
           style="fill:#ff6b25;fill-opacity:1">
          <g
             id="g816-3-0-6"
             clip-path="url(#clipPath820-8-5-6)"
             style="fill:#ff6b25;fill-opacity:1">
            <path
               d="m 4014.08,3784.39 -115.39,49.06 -390.94,21.64 15.87,-53.39 490.46,-17.31"
               id="path822-9-2-0"
               inkscape:connector-curvature="0"
               style="fill:#ff6b25;fill-opacity:1" />
          </g>
        </g>
        <g
           transform="matrix(0.1,0,0,0.1,151.75229,36.554091)"
           id="g824-7-7-1"
           style="fill:#ff6b25;fill-opacity:1">
          <g
             id="g826-2-0-6"
             clip-path="url(#clipPath830-3-3-6)"
             style="fill:#ff6b25;fill-opacity:1">
            <path
               d="m 1997.41,3671.88 c 0,0 168.77,939.1 819.35,877.07 542.45,-51.72 294.28,-553.93 294.28,-553.93 l 138.49,-121.18 103.86,582.79 c 0,0 -196.18,161.56 -380.83,190.41 -184.65,28.85 -490.46,-31.74 -646.26,-204.84 -155.79,-173.11 -314.47,-556.83 -328.89,-770.32"
               id="path832-2-4-3"
               inkscape:connector-curvature="0"
               style="fill:#ff6b25;fill-opacity:1" />
            <path
               d="m 1997.41,3671.88 c 0,0 168.77,939.1 819.35,877.07 542.45,-51.72 294.28,-553.93 294.28,-553.93 l 138.49,-121.18 103.86,582.79 c 0,0 -196.18,161.56 -380.83,190.41 -184.65,28.85 -490.46,-31.74 -646.26,-204.84 -155.79,-173.11 -314.47,-556.83 -328.89,-770.32"
               id="path834-4-1-0"
               inkscape:connector-curvature="0"
               style="fill:#ff6b25;fill-opacity:1" />
          </g>
        </g>
        <g
           transform="matrix(0.1,0,0,0.1,151.75229,36.554091)"
           id="g836-3-7-7"
           style="fill:#ff6b25;fill-opacity:1">
          <g
             id="g838-3-7-0"
             clip-path="url(#clipPath842-6-6-9)"
             style="fill:#ff6b25;fill-opacity:1">
            <path
               d="m 1997.41,3671.88 c 0,0 138.06,912.41 727.04,926.11 744.35,17.31 441.42,-631.83 441.42,-631.83 l -346.21,311.59 86.54,-1090.57 1107.88,597.21 -458.72,17.31 c 0,0 173.72,385.64 -43.28,692.43 -251.01,354.87 -1315.6,545.28 -1514.67,-822.25"
               id="path844-9-9-8"
               inkscape:connector-curvature="0"
               style="fill:#ff6b25;fill-opacity:1" />
          </g>
        </g>
        <g
           transform="matrix(0.1,0,0,0.1,151.75229,36.554091)"
           id="g846-0-8-1"
           style="fill:#ff6b25;fill-opacity:1">
          <g
             id="g848-0-2-8"
             clip-path="url(#clipPath852-5-4-3)"
             style="fill:#ff6b25;fill-opacity:1">
            <path
               d="m 3197.29,4391.38 c 1.16,-2.67 2.26,-5.34 3.34,-8.04 72.89,-183.09 -35.84,-416.1 -35.84,-416.1 l -346.22,311.59 86.56,-1090.57 1107.88,597.22 -458.73,17.31 c 0,0 105.68,234.6 49.22,483.41 -0.45,2.03 -0.92,4.06 -1.41,6.09 -16.19,68.22 -456.04,217.92 -404.8,99.09"
               id="path854-3-2-9"
               inkscape:connector-curvature="0"
               style="fill:#ff6b25;fill-opacity:1" />
          </g>
        </g>
        <g
           transform="matrix(0.1,0,0,0.1,151.75229,36.554091)"
           id="g856-8-4-3"
           style="fill:#ff6b25;fill-opacity:1">
          <g
             id="g858-5-0-4"
             clip-path="url(#clipPath862-6-1-2)"
             style="fill:#ff6b25;fill-opacity:1">
            <path
               d="m 2819.66,4277.75 -92.34,49.04 100.99,-1047.29 77.89,-92.32 -86.54,1090.57"
               id="path864-5-3-4"
               inkscape:connector-curvature="0"
               style="fill:#ff6b25;fill-opacity:1" />
            <path
               d="m 2819.66,4277.75 -92.34,49.04 100.99,-1047.29 77.89,-92.32 -86.54,1090.57"
               id="path866-5-1-6"
               inkscape:connector-curvature="0"
               style="fill:#ff6b25;fill-opacity:1" />
          </g>
        </g>
        <g
           transform="matrix(0.1,0,0,0.1,151.75229,36.554091)"
           id="g868-5-1-7"
           style="fill:#ff6b25;fill-opacity:1">
          <g
             id="g870-9-9-0"
             clip-path="url(#clipPath874-7-3-6)"
             style="fill:#ff6b25;fill-opacity:1">
            <path
               d="m 2819.66,4277.75 c 0,0 8.65,-201.24 30.29,-497.68 21.64,-296.45 56.25,-592.89 56.25,-592.89 0,0 -12.97,272.64 -36.78,599.38 -23.79,326.74 -49.76,491.19 -49.76,491.19"
               id="path876-0-2-9"
               inkscape:connector-curvature="0"
               style="fill:#ff6b25;fill-opacity:1" />
            <path
               d="m 2819.66,4277.75 c 0,0 8.65,-201.24 30.29,-497.68 21.64,-296.45 56.25,-592.89 56.25,-592.89 0,0 -12.97,272.64 -36.78,599.38 -23.79,326.74 -49.76,491.19 -49.76,491.19"
               id="path878-4-1-0"
               inkscape:connector-curvature="0"
               style="fill:#ff6b25;fill-opacity:1" />
          </g>
        </g>
        <g
           transform="matrix(0.1,0,0,0.1,151.75229,36.554091)"
           id="g880-5-6-1"
           style="fill:#ff6b25;fill-opacity:1">
          <g
             id="g882-2-4-0"
             clip-path="url(#clipPath886-5-5-4)"
             style="fill:#ff6b25;fill-opacity:1">
            <path
               d="m 3554.28,3802.79 c 0,0 46.51,3.25 189.33,1.08 142.82,-2.17 269.4,-18.39 269.4,-18.39 0,0 -137.4,-5.41 -458.73,17.31"
               id="path888-7-1-4"
               inkscape:connector-curvature="0"
               style="fill:#ff6b25;fill-opacity:1" />
            <path
               d="m 3554.28,3802.79 c 0,0 46.51,3.25 189.33,1.08 142.82,-2.17 269.4,-18.39 269.4,-18.39 0,0 -137.4,-5.41 -458.73,17.31"
               id="path890-1-7-5"
               inkscape:connector-curvature="0"
               style="fill:#ff6b25;fill-opacity:1" />
          </g>
        </g>
        <g
           transform="matrix(0.1,0,0,0.1,151.75229,36.554091)"
           id="g892-2-7-1"
           style="fill:#ff6b25;fill-opacity:1">
          <g
             id="g894-0-6-8"
             clip-path="url(#clipPath898-0-4-7)"
             style="fill:#ff6b25;fill-opacity:1">
            <path
               d="m 3164.79,3967.24 c 0,0 142.45,326.37 9.73,496.59 -144.75,185.69 -525.09,181.77 -701.08,72.13 -151.37,-94.28 -201.23,-188.97 -201.23,-188.97 0,0 89.45,119.5 207.73,181.76 123.33,64.91 483.46,137.89 681.6,-80.06 122.62,-134.89 3.25,-481.45 3.25,-481.45"
               id="path900-0-4-1"
               inkscape:connector-curvature="0"
               style="fill:#ff6b25;fill-opacity:1" />
            <path
               d="m 3164.79,3967.24 c 0,0 142.45,326.37 9.73,496.59 -144.75,185.69 -525.09,181.77 -701.08,72.13 -151.37,-94.28 -201.23,-188.97 -201.23,-188.97 0,0 89.45,119.5 207.73,181.76 123.33,64.91 483.46,137.89 681.6,-80.06 122.62,-134.89 3.25,-481.45 3.25,-481.45"
               id="path902-4-8-1"
               inkscape:connector-curvature="0"
               style="fill:#ff6b25;fill-opacity:1" />
          </g>
        </g>
      </g>
    </g>
    <g
       id="g10-7-5"
       transform="matrix(-0.11172695,-0.19351676,-0.19351676,0.11172695,118.08077,127.30246)"
       style="opacity:0.95999995"
       inkscape:export-xdpi="28.34"
       inkscape:export-ydpi="28.34">
      <g
         id="g6861-7-5"
         transform="translate(-13.928572,-106.07143)"
         style="fill:#ff6b25;fill-opacity:1">
        <g
           transform="matrix(0.1,0,0,0.1,151.75229,36.554091)"
           id="g814-4-2"
           style="fill:#ff6b25;fill-opacity:1">
          <g
             id="g816-3-0"
             clip-path="url(#clipPath820-8-5)"
             style="fill:#ff6b25;fill-opacity:1">
            <path
               d="m 4014.08,3784.39 -115.39,49.06 -390.94,21.64 15.87,-53.39 490.46,-17.31"
               id="path822-9-2"
               inkscape:connector-curvature="0"
               style="fill:#ff6b25;fill-opacity:1" />
          </g>
        </g>
        <g
           transform="matrix(0.1,0,0,0.1,151.75229,36.554091)"
           id="g824-7-7"
           style="fill:#ff6b25;fill-opacity:1">
          <g
             id="g826-2-0"
             clip-path="url(#clipPath830-3-3)"
             style="fill:#ff6b25;fill-opacity:1">
            <path
               d="m 1997.41,3671.88 c 0,0 168.77,939.1 819.35,877.07 542.45,-51.72 294.28,-553.93 294.28,-553.93 l 138.49,-121.18 103.86,582.79 c 0,0 -196.18,161.56 -380.83,190.41 -184.65,28.85 -490.46,-31.74 -646.26,-204.84 -155.79,-173.11 -314.47,-556.83 -328.89,-770.32"
               id="path832-2-4"
               inkscape:connector-curvature="0"
               style="fill:#ff6b25;fill-opacity:1" />
            <path
               d="m 1997.41,3671.88 c 0,0 168.77,939.1 819.35,877.07 542.45,-51.72 294.28,-553.93 294.28,-553.93 l 138.49,-121.18 103.86,582.79 c 0,0 -196.18,161.56 -380.83,190.41 -184.65,28.85 -490.46,-31.74 -646.26,-204.84 -155.79,-173.11 -314.47,-556.83 -328.89,-770.32"
               id="path834-4-1"
               inkscape:connector-curvature="0"
               style="fill:#ff6b25;fill-opacity:1" />
          </g>
        </g>
        <g
           transform="matrix(0.1,0,0,0.1,151.75229,36.554091)"
           id="g836-3-7"
           style="fill:#ff6b25;fill-opacity:1">
          <g
             id="g838-3-7"
             clip-path="url(#clipPath842-6-6)"
             style="fill:#ff6b25;fill-opacity:1">
            <path
               d="m 1997.41,3671.88 c 0,0 138.06,912.41 727.04,926.11 744.35,17.31 441.42,-631.83 441.42,-631.83 l -346.21,311.59 86.54,-1090.57 1107.88,597.21 -458.72,17.31 c 0,0 173.72,385.64 -43.28,692.43 -251.01,354.87 -1315.6,545.28 -1514.67,-822.25"
               id="path844-9-9"
               inkscape:connector-curvature="0"
               style="fill:#ff6b25;fill-opacity:1" />
          </g>
        </g>
        <g
           transform="matrix(0.1,0,0,0.1,151.75229,36.554091)"
           id="g846-0-8"
           style="fill:#ff6b25;fill-opacity:1">
          <g
             id="g848-0-2"
             clip-path="url(#clipPath852-5-4)"
             style="fill:#ff6b25;fill-opacity:1">
            <path
               d="m 3197.29,4391.38 c 1.16,-2.67 2.26,-5.34 3.34,-8.04 72.89,-183.09 -35.84,-416.1 -35.84,-416.1 l -346.22,311.59 86.56,-1090.57 1107.88,597.22 -458.73,17.31 c 0,0 105.68,234.6 49.22,483.41 -0.45,2.03 -0.92,4.06 -1.41,6.09 -16.19,68.22 -456.04,217.92 -404.8,99.09"
               id="path854-3-2"
               inkscape:connector-curvature="0"
               style="fill:#ff6b25;fill-opacity:1" />
          </g>
        </g>
        <g
           transform="matrix(0.1,0,0,0.1,151.75229,36.554091)"
           id="g856-8-4"
           style="fill:#ff6b25;fill-opacity:1">
          <g
             id="g858-5-0"
             clip-path="url(#clipPath862-6-1)"
             style="fill:#ff6b25;fill-opacity:1">
            <path
               d="m 2819.66,4277.75 -92.34,49.04 100.99,-1047.29 77.89,-92.32 -86.54,1090.57"
               id="path864-5-3"
               inkscape:connector-curvature="0"
               style="fill:#ff6b25;fill-opacity:1" />
            <path
               d="m 2819.66,4277.75 -92.34,49.04 100.99,-1047.29 77.89,-92.32 -86.54,1090.57"
               id="path866-5-1"
               inkscape:connector-curvature="0"
               style="fill:#ff6b25;fill-opacity:1" />
          </g>
        </g>
        <g
           transform="matrix(0.1,0,0,0.1,151.75229,36.554091)"
           id="g868-5-1"
           style="fill:#ff6b25;fill-opacity:1">
          <g
             id="g870-9-9"
             clip-path="url(#clipPath874-7-3)"
             style="fill:#ff6b25;fill-opacity:1">
            <path
               d="m 2819.66,4277.75 c 0,0 8.65,-201.24 30.29,-497.68 21.64,-296.45 56.25,-592.89 56.25,-592.89 0,0 -12.97,272.64 -36.78,599.38 -23.79,326.74 -49.76,491.19 -49.76,491.19"
               id="path876-0-2"
               inkscape:connector-curvature="0"
               style="fill:#ff6b25;fill-opacity:1" />
            <path
               d="m 2819.66,4277.75 c 0,0 8.65,-201.24 30.29,-497.68 21.64,-296.45 56.25,-592.89 56.25,-592.89 0,0 -12.97,272.64 -36.78,599.38 -23.79,326.74 -49.76,491.19 -49.76,491.19"
               id="path878-4-1"
               inkscape:connector-curvature="0"
               style="fill:#ff6b25;fill-opacity:1" />
          </g>
        </g>
        <g
           transform="matrix(0.1,0,0,0.1,151.75229,36.554091)"
           id="g880-5-6"
           style="fill:#ff6b25;fill-opacity:1">
          <g
             id="g882-2-4"
             clip-path="url(#clipPath886-5-5)"
             style="fill:#ff6b25;fill-opacity:1">
            <path
               d="m 3554.28,3802.79 c 0,0 46.51,3.25 189.33,1.08 142.82,-2.17 269.4,-18.39 269.4,-18.39 0,0 -137.4,-5.41 -458.73,17.31"
               id="path888-7-1"
               inkscape:connector-curvature="0"
               style="fill:#ff6b25;fill-opacity:1" />
            <path
               d="m 3554.28,3802.79 c 0,0 46.51,3.25 189.33,1.08 142.82,-2.17 269.4,-18.39 269.4,-18.39 0,0 -137.4,-5.41 -458.73,17.31"
               id="path890-1-7"
               inkscape:connector-curvature="0"
               style="fill:#ff6b25;fill-opacity:1" />
          </g>
        </g>
        <g
           transform="matrix(0.1,0,0,0.1,151.75229,36.554091)"
           id="g892-2-7"
           style="fill:#ff6b25;fill-opacity:1">
          <g
             id="g894-0-6"
             clip-path="url(#clipPath898-0-4)"
             style="fill:#ff6b25;fill-opacity:1">
            <path
               d="m 3164.79,3967.24 c 0,0 142.45,326.37 9.73,496.59 -144.75,185.69 -525.09,181.77 -701.08,72.13 -151.37,-94.28 -201.23,-188.97 -201.23,-188.97 0,0 89.45,119.5 207.73,181.76 123.33,64.91 483.46,137.89 681.6,-80.06 122.62,-134.89 3.25,-481.45 3.25,-481.45"
               id="path900-0-4"
               inkscape:connector-curvature="0"
               style="fill:#ff6b25;fill-opacity:1" />
            <path
               d="m 3164.79,3967.24 c 0,0 142.45,326.37 9.73,496.59 -144.75,185.69 -525.09,181.77 -701.08,72.13 -151.37,-94.28 -201.23,-188.97 -201.23,-188.97 0,0 89.45,119.5 207.73,181.76 123.33,64.91 483.46,137.89 681.6,-80.06 122.62,-134.89 3.25,-481.45 3.25,-481.45"
               id="path902-4-8"
               inkscape:connector-curvature="0"
               style="fill:#ff6b25;fill-opacity:1" />
          </g>
        </g>
      </g>
    </g>
  </g>
  <g
     inkscape:groupmode="layer"
     id="layer2"
     inkscape:label="Layer 2" />
</svg>
